<svg xmlns="http://www.w3.org/2000/svg" xmlns:xlink="http://www.w3.org/1999/xlink" version="1.1" width="1250pt" height="1000pt" viewBox="0 0 1250 1000">
<defs>
<clipPath id="clip_1">
<path transform="matrix(1,0,0,-1,0,1000)" d="M0 1000H1250V0H0Z"/>
</clipPath>
</defs>
<g clip-path="url(#clip_1)">
<path transform="matrix(1,0,0,-1,0,507.1668)" d="M0 0C.165-9.399 .662-18.733 1.467-28H314.298L305.067-54.833H944.933L935.702-28H1248.533C1249.338-18.733 1249.835-9.399 1250 0Z"/>
<path transform="matrix(1,0,0,-1,60.3231,714.6669)" d="M0 0H192.224L182.993-26.833H946.36L937.129 0H1129.354C1134.819 9.182 1139.944 18.519 1144.717 28H-15.363C-10.59 18.519-5.465 9.182 0 0"/>
<path transform="matrix(1,0,0,-1,5.508,567.00027)" d="M0 0C1.577-9.418 3.472-18.755 5.695-28H288.206L278.976-54.833H960.008L950.777-28H1233.289C1235.512-18.755 1237.407-9.418 1238.984 0Z"/>
<path transform="matrix(1,0,0,-1,81.0607,746.5002)" d="M0 0C6.765-9.531 13.901-18.872 21.41-28H150.903L141.672-54.833H946.206L936.975-28H1066.468C1073.977-18.872 1081.113-9.531 1087.879 0Z"/>
<path transform="matrix(1,0,0,-1,20.2299,626.8336)" d="M0 0C3.087-9.444 6.503-18.782 10.252-28H252.901L243.67-54.833H965.87L956.639-28H1199.288C1203.037-18.782 1206.453-9.444 1209.54 0Z"/>
<path transform="matrix(1,0,0,-1,130.9605,806.3336)" d="M0 0C9.335-9.619 19.099-18.959 29.27-28H80.42L71.189-54.833H916.89L907.659-28H958.809C968.98-18.959 978.744-9.619 988.079 0Z"/>
<path transform="matrix(1,0,0,-1,428.568,203)" d="M0 0H392.864L384.608 24H675.68C587.651 108.005 465.747 168.522 326.778 192.103 284.734 199.238 241.133 203 196.432 203 151.731 203 108.13 199.238 66.086 192.103-72.883 168.522-194.787 108.005-282.816 24H8.256Z"/>
<path transform="matrix(1,0,0,-1,200.4294,866.167)" d="M0 0-.216-.627C26.826-20.675 56.093-38.827 87.248-54.833H761.893C793.048-38.827 822.316-20.675 849.357-.627L849.141 0Z"/>
<path transform="matrix(1,0,0,-1,325.6505,502.167)" d="M0 0H598.699L589.468 26.834H923.663C923.092 36.238 922.194 45.573 920.982 54.834H-322.283C-323.495 45.573-324.393 36.238-324.964 26.834H9.231Z"/>
<path transform="matrix(1,0,0,-1,407.9845,262.8335)" d="M0 0H434.031L424.8 26.833H747.947C740.506 36.388 732.667 45.724 724.46 54.833H-290.429C-298.636 45.724-306.475 36.388-313.916 26.833H9.231Z"/>
<path transform="matrix(1,0,0,-1,624.9999,1000)" d="M0 0C120.044 0 232.179 27.075 327.396 74H-327.396C-232.179 27.075-120.044 0 0 0"/>
<path transform="matrix(1,0,0,-1,387.4011,322.6665)" d="M0 0H475.198L465.967 26.833H808.341C803.025 36.327 797.354 45.664 791.333 54.833H-316.136C-322.156 45.664-327.827 36.327-333.143 26.833H9.231Z"/>
<path transform="matrix(1,0,0,-1,346.2341,442.3335)" d="M0 0H557.532L548.301 26.833H894.934C892.928 36.259 890.6 45.596 887.945 54.833H-330.413C-333.068 45.596-335.396 36.259-337.402 26.833H9.231Z"/>
<path transform="matrix(1,0,0,-1,366.8175,382.5)" d="M0 0H516.365L507.134 26.833H856.804C853.246 36.287 849.354 45.625 845.127 54.833H-328.762C-332.989 45.625-336.881 36.287-340.439 26.833H9.231Z"/>
<path transform="matrix(1,0,0,-1,566.666,252.32422)" d="M0 0V34.789H4.41V3.92H23.814V0Z" fill="#ffffff"/>
<path transform="matrix(1,0,0,-1,596.4102,234.92969)" d="M0 0C0-1.764 .285-3.471 .857-5.121 1.428-6.771 2.236-8.232 3.282-9.506 4.328-10.779 5.586-11.793 7.055-12.544 8.525-13.296 10.158-13.671 11.955-13.671 13.817-13.671 15.483-13.279 16.953-12.495 18.424-11.711 19.673-10.666 20.701-9.359 21.73-8.053 22.516-6.583 23.054-4.949 23.593-3.316 23.862-1.666 23.862 0 23.862 1.764 23.576 3.462 23.005 5.096 22.434 6.729 21.616 8.19 20.555 9.481 19.493 10.771 18.234 11.785 16.781 12.52 15.328 13.254 13.719 13.622 11.955 13.622 10.094 13.622 8.428 13.238 6.957 12.471 5.487 11.703 4.238 10.665 3.209 9.359 2.18 8.053 1.388 6.59 .832 4.974 .276 3.356 0 1.698 0 0M11.906-17.641C9.457-17.641 7.234-17.15 5.242-16.17 3.25-15.189 1.525-13.859 .072-12.177-1.381-10.494-2.5-8.6-3.283-6.492-4.067-4.386-4.459-2.222-4.459 0-4.459 2.318-4.043 4.533-3.21 6.64-2.377 8.746-1.218 10.625 .27 12.274 1.755 13.924 3.494 15.23 5.487 16.194 7.479 17.158 9.652 17.641 12.004 17.641 14.455 17.641 16.676 17.133 18.668 16.121 20.66 15.107 22.375 13.752 23.813 12.055 25.25 10.355 26.361 8.46 27.146 6.37 27.93 4.279 28.321 2.139 28.321-.049 28.321-2.369 27.912-4.582 27.096-6.688 26.279-8.795 25.128-10.674 23.643-12.324 22.155-13.974 20.416-15.271 18.424-16.219 16.431-17.167 14.258-17.641 11.906-17.641" fill="#ffffff"/>
<path transform="matrix(1,0,0,-1,630.5137,217.53522)" d="M0 0 11.515-29.252 22.98 0H27.635L13.523-34.789H9.506L-4.655 0Z" fill="#ffffff"/>
<path transform="matrix(1,0,0,-1,686.4707,248.4043)" d="M0 0V-3.92H-23.617V30.869H-.441V26.949H-19.207V15.68H-2.891V12.004H-19.207V0Z" fill="#ffffff"/>
<path transform="matrix(1,0,0,-1,518.4023,295.91023)" d="M0 0H10.143C11.351 0 12.404 .326 13.303 .98 14.201 1.633 14.903 2.516 15.41 3.627 15.917 4.736 16.17 5.945 16.17 7.252 16.17 8.625 15.876 9.857 15.288 10.952 14.7 12.046 13.932 12.903 12.985 13.524 12.037 14.145 10.992 14.455 9.849 14.455H0ZM-4.41-16.414V18.375H10.094C11.629 18.375 13.034 18.057 14.308 17.42 15.582 16.783 16.692 15.934 17.64 14.872 18.587 13.811 19.322 12.618 19.845 11.295 20.367 9.973 20.629 8.625 20.629 7.252 20.629 5.357 20.204 3.553 19.355 1.838 18.505 .123 17.313-1.266 15.778-2.327 14.242-3.389 12.446-3.92 10.388-3.92H0V-16.414Z" fill="#ffffff"/>
<path transform="matrix(1,0,0,-1,560.6191,298.70314)" d="M0 0-6.154 16.072-12.334 0ZM-8.016 21.168H-4.291L9.918-13.621H5.215L1.312-3.43H-13.652L-17.57-13.621H-22.274Z" fill="#ffffff"/>
<path transform="matrix(1,0,0,-1,596.998,281.45509)" d="M0 0H-12.006V-30.869H-16.416V0H-28.42V3.92H0Z" fill="#ffffff"/>
<path transform="matrix(1,0,0,-1,0,1000)" d="M601.996 722.465H606.40597V687.676H601.996Z" fill="#ffffff"/>
<path transform="matrix(1,0,0,-1,638.3535,308.4043)" d="M0 0V-3.92H-23.618V30.869H-.441V26.949H-19.208V15.68H-2.891V12.004H-19.208V0Z" fill="#ffffff"/>
<path transform="matrix(1,0,0,-1,648.791,285.66889)" d="M0 0V-26.655H-4.41V8.134H-.687L20.579-19.061V8.085H24.989V-26.655H20.971Z" fill="#ffffff"/>
<path transform="matrix(1,0,0,-1,679.8555,294.63569)" d="M0 0C0 2.123 .367 4.206 1.104 6.247 1.838 8.288 2.916 10.151 4.337 11.833 5.758 13.516 7.498 14.854 9.555 15.852 11.613 16.848 13.949 17.347 16.562 17.347 19.666 17.347 22.328 16.636 24.549 15.214 26.77 13.794 28.42 11.972 29.498 9.751L26.02 7.497C25.334 8.967 24.459 10.135 23.398 11.001 22.336 11.866 21.193 12.478 19.969 12.838 18.742 13.197 17.543 13.377 16.367 13.377 14.439 13.377 12.732 12.985 11.246 12.201 9.76 11.417 8.51 10.371 7.498 9.065 6.484 7.759 5.725 6.296 5.219 4.68 4.712 3.063 4.459 1.437 4.459-.196 4.459-1.993 4.762-3.724 5.365-5.39 5.97-7.056 6.812-8.526 7.889-9.8 8.967-11.073 10.242-12.087 11.711-12.838 13.182-13.59 14.781-13.965 16.514-13.965 17.721-13.965 18.963-13.753 20.238-13.328 21.512-12.903 22.703-12.242 23.814-11.343 24.924-10.445 25.807-9.278 26.461-7.84L30.135-9.849C29.416-11.581 28.305-13.051 26.803-14.259 25.301-15.468 23.627-16.383 21.781-17.003 19.936-17.624 18.113-17.935 16.316-17.935 13.932-17.935 11.744-17.419 9.752-16.391 7.758-15.361 6.035-13.989 4.582-12.274 3.128-10.56 2.001-8.632 1.201-6.493 .4-4.354 0-2.188 0 0" fill="#ffffff"/>
<path transform="matrix(1,0,0,-1,739.1445,308.4043)" d="M0 0V-3.92H-23.617V30.869H-.441V26.949H-19.207V15.68H-2.891V12.004H-19.207V0Z" fill="#ffffff"/>
<path transform="matrix(1,0,0,-1,443.5068,355.91023)" d="M0 0H10.143C11.351 0 12.404 .326 13.303 .98 14.201 1.633 14.903 2.516 15.41 3.627 15.917 4.736 16.17 5.945 16.17 7.252 16.17 8.625 15.876 9.857 15.288 10.952 14.7 12.046 13.932 12.903 12.985 13.524 12.037 14.145 10.992 14.455 9.849 14.455H0ZM-4.41-16.414V18.375H10.094C11.629 18.375 13.034 18.057 14.308 17.42 15.582 16.783 16.692 15.934 17.64 14.872 18.587 13.811 19.322 12.618 19.845 11.295 20.367 9.973 20.629 8.625 20.629 7.252 20.629 5.357 20.204 3.553 19.355 1.838 18.505 .123 17.313-1.266 15.778-2.327 14.242-3.389 12.446-3.92 10.388-3.92H0V-16.414Z" fill="#ffffff"/>
<path transform="matrix(1,0,0,-1,493.2412,368.4043)" d="M0 0V-3.92H-23.618V30.869H-.441V26.949H-19.208V15.68H-2.891V12.004H-19.208V0Z" fill="#ffffff"/>
<path transform="matrix(1,0,0,-1,503.6777,355.91023)" d="M0 0H10.535C11.743 0 12.796 .335 13.695 1.005 14.593 1.674 15.295 2.564 15.802 3.676 16.309 4.785 16.562 5.979 16.562 7.252 16.562 8.559 16.268 9.76 15.68 10.854 15.092 11.948 14.324 12.822 13.377 13.476 12.429 14.129 11.384 14.455 10.241 14.455H0ZM-4.41-16.414V18.375H10.486C12.021 18.375 13.426 18.057 14.7 17.42 15.974 16.783 17.084 15.934 18.032 14.872 18.979 13.811 19.714 12.618 20.237 11.295 20.759 9.973 21.021 8.625 21.021 7.252 21.021 5.651 20.718 4.133 20.114 2.695 19.509 1.258 18.66 .033 17.566-.979 16.472-1.992 15.19-2.694 13.72-3.086L22.148-16.414H17.15L9.212-3.92H0V-16.414Z" fill="#ffffff"/>
<path transform="matrix(1,0,0,-1,551.8936,344.83589)" d="M0 0C-.392 .457-.915 .898-1.568 1.323-2.222 1.748-2.957 2.132-3.772 2.475-4.59 2.818-5.48 3.095-6.444 3.308-7.407 3.52-8.412 3.627-9.457 3.627-12.136 3.627-14.112 3.121-15.386 2.111-16.66 1.102-17.297-.282-17.297-2.04-17.297-3.277-16.971-4.254-16.317-4.971-15.664-5.687-14.66-6.273-13.304-6.729-11.949-7.186-10.225-7.658-8.134-8.146-5.718-8.668-3.626-9.303-1.862-10.052-.099-10.801 1.257-11.802 2.205-13.055 3.151-14.309 3.626-15.978 3.626-18.062 3.626-19.723 3.308-21.164 2.671-22.385 2.033-23.606 1.144-24.616 0-25.414-1.144-26.212-2.483-26.799-4.019-27.172-5.554-27.547-7.22-27.734-9.016-27.734-10.78-27.734-12.503-27.545-14.186-27.17-15.869-26.795-17.461-26.248-18.963-25.529-20.466-24.811-21.871-23.912-23.177-22.834L-21.07-19.109C-20.548-19.666-19.87-20.213-19.037-20.752-18.204-21.29-17.256-21.789-16.195-22.246-15.133-22.703-13.982-23.071-12.74-23.348-11.499-23.626-10.225-23.765-8.918-23.765-6.437-23.765-4.509-23.318-3.136-22.424-1.765-21.529-1.078-20.222-1.078-18.499-1.078-17.195-1.462-16.154-2.229-15.372-2.997-14.59-4.133-13.939-5.636-13.418-7.138-12.896-8.967-12.375-11.123-11.854-13.475-11.267-15.452-10.623-17.052-9.923-18.653-9.223-19.854-8.303-20.654-7.162-21.455-6.021-21.854-4.54-21.854-2.715-21.854-.5-21.315 1.372-20.237 2.903-19.159 4.435-17.673 5.591-15.778 6.373-13.884 7.154-11.744 7.547-9.359 7.547-7.791 7.547-6.329 7.383-4.974 7.057-3.618 6.729-2.353 6.272-1.177 5.684 0 5.096 1.077 4.394 2.058 3.577Z" fill="#ffffff"/>
<path transform="matrix(1,0,0,-1,584.9199,368.4043)" d="M0 0V-3.92H-23.619V30.869H-.441V26.949H-19.209V15.68H-2.892V12.004H-19.209V0Z" fill="#ffffff"/>
<path transform="matrix(1,0,0,-1,591.9258,337.53523)" d="M0 0 11.516-29.252 22.981 0H27.637L13.524-34.789H9.506L-4.654 0Z" fill="#ffffff"/>
<path transform="matrix(1,0,0,-1,647.8838,368.4043)" d="M0 0V-3.92H-23.618V30.869H-.441V26.949H-19.208V15.68H-2.892V12.004H-19.208V0Z" fill="#ffffff"/>
<path transform="matrix(1,0,0,-1,658.3203,355.91023)" d="M0 0H10.535C11.744 0 12.797 .335 13.695 1.005 14.594 1.674 15.296 2.564 15.803 3.676 16.309 4.785 16.562 5.979 16.562 7.252 16.562 8.559 16.268 9.76 15.68 10.854 15.092 11.948 14.324 12.822 13.377 13.476 12.43 14.129 11.385 14.455 10.241 14.455H0ZM-4.41-16.414V18.375H10.486C12.021 18.375 13.426 18.057 14.7 17.42 15.975 16.783 17.084 15.934 18.032 14.872 18.979 13.811 19.715 12.618 20.237 11.295 20.76 9.973 21.021 8.625 21.021 7.252 21.021 5.651 20.719 4.133 20.115 2.695 19.51 1.258 18.66 .033 17.566-.979 16.473-1.992 15.19-2.694 13.721-3.086L22.148-16.414H17.15L9.213-3.92H0V-16.414Z" fill="#ffffff"/>
<path transform="matrix(1,0,0,-1,704.7031,358.70314)" d="M0 0-6.154 16.072-12.334 0ZM-8.016 21.168H-4.293L9.918-13.621H5.213L1.311-3.43H-13.652L-17.57-13.621H-22.274Z" fill="#ffffff"/>
<path transform="matrix(1,0,0,-1,723.6855,345.66889)" d="M0 0V-26.655H-4.41V8.134H-.686L20.58-19.061V8.085H24.99V-26.655H20.973Z" fill="#ffffff"/>
<path transform="matrix(1,0,0,-1,754.752,354.63569)" d="M0 0C0 2.123 .367 4.206 1.102 6.247 1.836 8.288 2.914 10.151 4.336 11.833 5.758 13.516 7.496 14.854 9.555 15.852 11.613 16.848 13.947 17.347 16.561 17.347 19.664 17.347 22.326 16.636 24.549 15.214 26.77 13.794 28.42 11.972 29.498 9.751L26.018 7.497C25.332 8.967 24.459 10.135 23.396 11.001 22.334 11.866 21.191 12.478 19.967 12.838 18.742 13.197 17.541 13.377 16.365 13.377 14.438 13.377 12.73 12.985 11.244 12.201 9.758 11.417 8.508 10.371 7.496 9.065 6.484 7.759 5.725 6.296 5.219 4.68 4.711 3.063 4.459 1.437 4.459-.196 4.459-1.993 4.76-3.724 5.365-5.39 5.969-7.056 6.811-8.526 7.889-9.8 8.967-11.073 10.24-12.087 11.711-12.838 13.18-13.59 14.781-13.965 16.512-13.965 17.721-13.965 18.963-13.753 20.236-13.328 21.51-12.903 22.703-12.242 23.812-11.343 24.924-10.445 25.805-9.278 26.459-7.84L30.135-9.849C29.416-11.581 28.305-13.051 26.803-14.259 25.299-15.468 23.625-16.383 21.779-17.003 19.934-17.624 18.113-17.935 16.316-17.935 13.932-17.935 11.742-17.419 9.75-16.391 7.758-15.361 6.033-13.989 4.58-12.274 3.127-10.56 2-8.632 1.199-6.493 .398-4.354 0-2.188 0 0" fill="#ffffff"/>
<path transform="matrix(1,0,0,-1,814.041,368.4043)" d="M0 0V-3.92H-23.617V30.869H-.441V26.949H-19.207V15.68H-2.891V12.004H-19.207V0Z" fill="#ffffff"/>
<path transform="matrix(1,0,0,-1,512.2773,432.32423)" d="M0 0V34.789H22.981V30.869H4.41V19.256H20.041V15.582H4.41V0Z" fill="#ffffff"/>
<path transform="matrix(1,0,0,-1,545.2539,415.91023)" d="M0 0H10.535C11.743 0 12.797 .335 13.695 1.005 14.594 1.674 15.295 2.564 15.803 3.676 16.309 4.785 16.562 5.979 16.562 7.252 16.562 8.559 16.268 9.76 15.68 10.854 15.092 11.948 14.324 12.822 13.377 13.476 12.43 14.129 11.384 14.455 10.24 14.455H0ZM-4.41-16.414V18.375H10.486C12.021 18.375 13.426 18.057 14.699 17.42 15.974 16.783 17.084 15.934 18.031 14.872 18.979 13.811 19.714 12.618 20.236 11.295 20.759 9.973 21.021 8.625 21.021 7.252 21.021 5.651 20.719 4.133 20.114 2.695 19.51 1.258 18.66 .033 17.566-.979 16.472-1.992 15.189-2.694 13.72-3.086L22.148-16.414H17.15L9.212-3.92H0V-16.414Z" fill="#ffffff"/>
<path transform="matrix(1,0,0,-1,596.6543,428.4043)" d="M0 0V-3.92H-23.617V30.869H-.441V26.949H-19.207V15.68H-2.891V12.004H-19.207V0Z" fill="#ffffff"/>
<path transform="matrix(1,0,0,-1,626.2998,428.4043)" d="M0 0V-3.92H-23.618V30.869H-.441V26.949H-19.208V15.68H-2.892V12.004H-19.208V0Z" fill="#ffffff"/>
<path transform="matrix(1,0,0,-1,656.7285,414.88093)" d="M0 0C0 2.613-.482 4.932-1.445 6.958-2.409 8.983-3.806 10.567-5.635 11.711-7.465 12.854-9.701 13.426-12.348 13.426H-19.992V-13.523H-12.348C-9.67-13.523-7.416-12.928-5.586-11.735-3.757-10.543-2.369-8.926-1.421-6.885-.474-4.844 0-2.548 0 0M-24.402-17.443V17.346H-12.348C-8.624 17.346-5.512 16.57-3.014 15.019-.514 13.467 1.355 11.376 2.598 8.746 3.838 6.117 4.459 3.201 4.459 0 4.459-3.527 3.773-6.599 2.4-9.212 1.029-11.826-.915-13.851-3.43-15.288-5.945-16.726-8.918-17.443-12.348-17.443Z" fill="#ffffff"/>
<path transform="matrix(1,0,0,-1,669.6152,414.9297)" d="M0 0C0-1.764 .285-3.471 .857-5.121 1.428-6.771 2.236-8.232 3.282-9.506 4.328-10.779 5.586-11.793 7.055-12.544 8.525-13.296 10.158-13.671 11.955-13.671 13.817-13.671 15.483-13.279 16.953-12.495 18.424-11.711 19.674-10.666 20.701-9.359 21.73-8.053 22.516-6.583 23.055-4.949 23.594-3.316 23.863-1.666 23.863 0 23.863 1.764 23.576 3.462 23.006 5.096 22.434 6.729 21.615 8.19 20.555 9.481 19.492 10.771 18.234 11.785 16.781 12.52 15.328 13.254 13.719 13.622 11.955 13.622 10.094 13.622 8.428 13.238 6.957 12.471 5.487 11.703 4.238 10.665 3.209 9.359 2.18 8.053 1.388 6.59 .832 4.974 .276 3.356 0 1.698 0 0M11.906-17.641C9.457-17.641 7.234-17.15 5.242-16.17 3.25-15.189 1.525-13.859 .072-12.177-1.381-10.494-2.5-8.6-3.283-6.492-4.067-4.386-4.459-2.222-4.459 0-4.459 2.318-4.043 4.533-3.21 6.64-2.377 8.746-1.218 10.625 .27 12.274 1.755 13.924 3.494 15.23 5.487 16.194 7.479 17.158 9.652 17.641 12.004 17.641 14.455 17.641 16.676 17.133 18.668 16.121 20.66 15.107 22.375 13.752 23.812 12.055 25.25 10.355 26.361 8.46 27.145 6.37 27.93 4.279 28.322 2.139 28.322-.049 28.322-2.369 27.912-4.582 27.096-6.688 26.279-8.795 25.129-10.674 23.643-12.324 22.154-13.974 20.416-15.271 18.424-16.219 16.431-17.167 14.258-17.641 11.906-17.641" fill="#ffffff"/>
<path transform="matrix(1,0,0,-1,734.1465,432.32423)" d="M0 0V26.558L-11.465 6.125H-14.16L-25.676 26.558V0H-30.086V34.789H-25.43L-12.838 12.201-.195 34.789H4.41V0Z" fill="#ffffff"/>
<path transform="matrix(1,0,0,-1,462.3223,492.3242)" d="M0 0V34.789H22.981V30.869H4.41V19.256H20.041V15.582H4.41V0Z" fill="#ffffff"/>
<path transform="matrix(1,0,0,-1,492.4575,474.9297)" d="M0 0C0-1.764 .286-3.471 .857-5.121 1.429-6.771 2.237-8.232 3.283-9.506 4.328-10.779 5.586-11.793 7.056-12.544 8.526-13.296 10.159-13.671 11.956-13.671 13.818-13.671 15.484-13.279 16.954-12.495 18.424-11.711 19.673-10.666 20.702-9.359 21.731-8.053 22.516-6.583 23.054-4.949 23.593-3.316 23.863-1.666 23.863 0 23.863 1.764 23.577 3.462 23.005 5.096 22.434 6.729 21.617 8.19 20.555 9.481 19.494 10.771 18.235 11.785 16.782 12.52 15.329 13.254 13.72 13.622 11.956 13.622 10.094 13.622 8.428 13.238 6.958 12.471 5.488 11.703 4.238 10.665 3.209 9.359 2.18 8.053 1.388 6.59 .833 4.974 .277 3.356 0 1.698 0 0M11.907-17.641C9.457-17.641 7.235-17.15 5.243-16.17 3.25-15.189 1.526-13.859 .073-12.177-1.38-10.494-2.499-8.6-3.283-6.492-4.067-4.386-4.459-2.222-4.459 0-4.459 2.318-4.042 4.533-3.209 6.64-2.376 8.746-1.217 10.625 .27 12.274 1.755 13.924 3.495 15.23 5.488 16.194 7.48 17.158 9.653 17.641 12.005 17.641 14.455 17.641 16.676 17.133 18.669 16.121 20.661 15.107 22.376 13.752 23.814 12.055 25.251 10.355 26.362 8.46 27.146 6.37 27.93 4.279 28.322 2.139 28.322-.049 28.322-2.369 27.913-4.582 27.097-6.688 26.28-8.795 25.128-10.674 23.643-12.324 22.156-13.974 20.416-15.271 18.424-16.219 16.431-17.167 14.259-17.641 11.907-17.641" fill="#ffffff"/>
<path transform="matrix(1,0,0,-1,531.314,475.91023)" d="M0 0H10.535C11.743 0 12.796 .335 13.696 1.005 14.593 1.674 15.295 2.564 15.802 3.676 16.309 4.785 16.562 5.979 16.562 7.252 16.562 8.559 16.268 9.76 15.68 10.854 15.092 11.948 14.324 12.822 13.377 13.476 12.429 14.129 11.384 14.455 10.241 14.455H0ZM-4.41-16.414V18.375H10.486C12.021 18.375 13.426 18.057 14.7 17.42 15.973 16.783 17.084 15.934 18.032 14.872 18.979 13.811 19.713 12.618 20.237 11.295 20.758 9.973 21.021 8.625 21.021 7.252 21.021 5.651 20.718 4.133 20.114 2.695 19.509 1.258 18.661 .033 17.567-.979 16.471-1.992 15.19-2.694 13.719-3.086L22.148-16.414H17.15L9.212-3.92H0V-16.414Z" fill="#ffffff"/>
<path transform="matrix(1,0,0,-1,583.6455,478.3105)" d="M0 0H-7.497V3.332H3.724V-14.014H0ZM-10.584-14.26C-12.87-14.26-15.003-13.762-16.979-12.765-18.955-11.769-20.678-10.43-22.147-8.746-23.618-7.064-24.762-5.17-25.577-3.063-26.396-.955-26.803 1.225-26.803 3.479-26.803 5.831-26.396 8.061-25.577 10.168-24.762 12.274-23.626 14.145-22.173 15.777-20.72 17.411-19.005 18.693-17.027 19.625-15.052 20.555-12.903 21.021-10.584 21.021-7.22 21.021-4.442 20.318-2.254 18.914-.065 17.509 1.584 15.68 2.695 13.426L-.687 11.074C-1.698 13.1-3.087 14.602-4.851 15.582-6.614 16.562-8.559 17.052-10.682 17.052-12.446 17.052-14.047 16.676-15.483 15.925-16.922 15.173-18.154 14.152-19.184 12.862-20.212 11.571-20.997 10.109-21.535 8.477-22.074 6.843-22.344 5.145-22.344 3.381-22.344 1.52-22.042-.237-21.437-1.887-20.833-3.537-19.976-4.99-18.864-6.248-17.755-7.506-16.464-8.494-14.993-9.213-13.524-9.932-11.94-10.29-10.241-10.29-8.249-10.29-6.354-9.784-4.557-8.771-2.761-7.759-1.062-6.207 .539-4.116V-8.674C-2.597-12.396-6.305-14.26-10.584-14.26" fill="#ffffff"/>
<path transform="matrix(1,0,0,-1,0,1000)" d="M594.082 542.465H598.49197V507.67604H594.082Z" fill="#ffffff"/>
<path transform="matrix(1,0,0,-1,607.8018,457.53523)" d="M0 0 11.515-29.252 22.981 0H27.636L13.524-34.789H9.506L-4.655 0Z" fill="#ffffff"/>
<path transform="matrix(1,0,0,-1,663.7598,488.4043)" d="M0 0V-3.92H-23.618V30.869H-.441V26.949H-19.208V15.68H-2.891V12.004H-19.208V0Z" fill="#ffffff"/>
<path transform="matrix(1,0,0,-1,674.1973,465.66889)" d="M0 0V-26.655H-4.41V8.134H-.687L20.58-19.061V8.085H24.99V-26.655H20.971Z" fill="#ffffff"/>
<path transform="matrix(1,0,0,-1,731.1348,488.4043)" d="M0 0V-3.92H-23.619V30.869H-.441V26.949H-19.209V15.68H-2.893V12.004H-19.209V0Z" fill="#ffffff"/>
<path transform="matrix(1,0,0,-1,757.5937,464.83589)" d="M0 0C-.393 .457-.916 .898-1.568 1.323-2.223 1.748-2.957 2.132-3.773 2.475-4.59 2.818-5.48 3.095-6.443 3.308-7.408 3.52-8.412 3.627-9.457 3.627-12.137 3.627-14.111 3.121-15.387 2.111-16.66 1.102-17.297-.282-17.297-2.04-17.297-3.277-16.971-4.254-16.316-4.971-15.664-5.687-14.66-6.273-13.303-6.729-11.949-7.186-10.225-7.658-8.135-8.146-5.717-8.668-3.627-9.303-1.861-10.052-.098-10.801 1.258-11.802 2.205-13.055 3.152-14.309 3.625-15.978 3.625-18.062 3.625-19.723 3.307-21.164 2.67-22.385 2.033-23.606 1.143-24.616 0-25.414-1.145-26.212-2.482-26.799-4.018-27.172-5.555-27.547-7.221-27.734-9.016-27.734-10.779-27.734-12.504-27.545-14.186-27.17-15.869-26.795-17.461-26.248-18.963-25.529-20.467-24.811-21.871-23.912-23.178-22.834L-21.07-19.109C-20.549-19.666-19.869-20.213-19.037-20.752-18.203-21.29-17.256-21.789-16.195-22.246-15.133-22.703-13.982-23.071-12.74-23.348-11.5-23.626-10.225-23.765-8.918-23.765-6.436-23.765-4.508-23.318-3.137-22.424-1.764-21.529-1.078-20.222-1.078-18.499-1.078-17.195-1.463-16.154-2.23-15.372-2.998-14.59-4.133-13.939-5.635-13.418-7.139-12.896-8.967-12.375-11.123-11.854-13.475-11.267-15.451-10.623-17.053-9.923-18.652-9.223-19.854-8.303-20.654-7.162-21.455-6.021-21.854-4.54-21.854-2.715-21.854-.5-21.314 1.372-20.236 2.903-19.158 4.435-17.674 5.591-15.777 6.373-13.885 7.154-11.744 7.547-9.359 7.547-7.791 7.547-6.33 7.383-4.975 7.057-3.619 6.729-2.352 6.272-1.176 5.684 0 5.096 1.078 4.394 2.059 3.577Z" fill="#ffffff"/>
<path transform="matrix(1,0,0,-1,787.4336,464.83589)" d="M0 0C-.391 .457-.914 .898-1.566 1.323-2.221 1.748-2.955 2.132-3.771 2.475-4.59 2.818-5.48 3.095-6.443 3.308-7.406 3.52-8.41 3.627-9.457 3.627-12.135 3.627-14.111 3.121-15.385 2.111-16.658 1.102-17.297-.282-17.297-2.04-17.297-3.277-16.971-4.254-16.316-4.971-15.664-5.687-14.658-6.273-13.303-6.729-11.947-7.186-10.225-7.658-8.133-8.146-5.717-8.668-3.625-9.303-1.861-10.052-.098-10.801 1.258-11.802 2.205-13.055 3.152-14.309 3.627-15.978 3.627-18.062 3.627-19.723 3.309-21.164 2.672-22.385 2.035-23.606 1.145-24.616 0-25.414-1.143-26.212-2.482-26.799-4.018-27.172-5.553-27.547-7.219-27.734-9.016-27.734-10.779-27.734-12.502-27.545-14.186-27.17-15.867-26.795-17.461-26.248-18.963-25.529-20.465-24.811-21.869-23.912-23.176-22.834L-21.068-19.109C-20.547-19.666-19.869-20.213-19.035-20.752-18.203-21.29-17.256-21.789-16.193-22.246-15.133-22.703-13.98-23.071-12.738-23.348-11.498-23.626-10.225-23.765-8.918-23.765-6.436-23.765-4.508-23.318-3.135-22.424-1.764-21.529-1.078-20.222-1.078-18.499-1.078-17.195-1.461-16.154-2.229-15.372-2.996-14.59-4.133-13.939-5.635-13.418-7.137-12.896-8.967-12.375-11.123-11.854-13.475-11.267-15.451-10.623-17.051-9.923-18.652-9.223-19.854-8.303-20.652-7.162-21.453-6.021-21.854-4.54-21.854-2.715-21.854-.5-21.314 1.372-20.236 2.903-19.158 4.435-17.672 5.591-15.777 6.373-13.883 7.154-11.742 7.547-9.357 7.547-7.791 7.547-6.328 7.383-4.973 7.057-3.617 6.729-2.352 6.272-1.176 5.684 0 5.096 1.078 4.394 2.059 3.577Z" fill="#ffffff"/>
<path transform="matrix(1,0,0,-1,541.3584,517.5342)" d="M0 0V-34.79H-4.41V-18.963H-23.569V-34.79H-27.979V0H-23.569V-15.043H-4.41V0Z" fill="#ffffff"/>
<path transform="matrix(1,0,0,-1,564.0449,552.56936)" d="M0 0C-2.776 0-5.112 .481-7.006 1.445-8.901 2.409-10.42 3.716-11.563 5.365-12.707 7.015-13.541 8.886-14.063 10.976-14.586 13.066-14.847 15.222-14.847 17.444V35.035H-10.437V17.444C-10.437 15.745-10.266 14.087-9.922 12.471-9.579 10.854-9.016 9.408-8.231 8.134-7.447 6.86-6.387 5.848-5.047 5.096-3.707 4.345-2.041 3.969-.049 3.969 1.977 3.969 3.658 4.353 4.998 5.121 6.338 5.888 7.399 6.917 8.184 8.208 8.967 9.497 9.531 10.943 9.874 12.544 10.217 14.144 10.389 15.778 10.389 17.444V35.035H14.799V17.444C14.799 15.093 14.529 12.862 13.99 10.756 13.451 8.648 12.594 6.794 11.418 5.194 10.242 3.593 8.714 2.327 6.836 1.396 4.957 .466 2.679 0 0 0" fill="#ffffff"/>
<path transform="matrix(1,0,0,-1,616.7686,552.3242)" d="M0 0V26.559L-11.466 6.125H-14.161L-25.676 26.559V0H-30.086V34.79H-25.431L-12.838 12.201-.196 34.79H4.41V0Z" fill="#ffffff"/>
<path transform="matrix(1,0,0,-1,0,1000)" d="M629.508 482.466H633.91799V447.676H629.508Z" fill="#ffffff"/>
<path transform="matrix(1,0,0,-1,642.248,552.3242)" d="M0 0V34.79H4.41V3.92H23.814V0Z" fill="#ffffff"/>
<path transform="matrix(1,0,0,-1,0,1000)" d="M670.864 482.466H675.274V447.676H670.864Z" fill="#ffffff"/>
<path transform="matrix(1,0,0,-1,708.6914,521.4541)" d="M0 0H-12.004V-30.87H-16.414V0H-28.42V3.92H0Z" fill="#ffffff"/>
<path transform="matrix(1,0,0,-1,715.0137,517.5342)" d="M0 0 10.535-18.13 21.168 0H25.969L12.738-22.099V-34.79H8.33V-22.001L-4.852 0Z" fill="#ffffff"/>
<path transform="matrix(1,0,0,-1,475.3804,577.73049)" d="M0 0H4.165L8.771-12.103 13.426 0H17.591L11.564-15.141 17.542-29.498 29.302 .196H34.104L19.551-34.594H15.729L8.82-18.179 1.862-34.594H-1.96L-16.464 .196H-11.711L.098-29.498 6.027-15.141Z" fill="#ffffff"/>
<path transform="matrix(1,0,0,-1,0,1000)" d="M514.042 422.466H518.45199V387.676H514.042Z" fill="#ffffff"/>
<path transform="matrix(1,0,0,-1,526.7812,612.3242)" d="M0 0V34.79H4.41V3.92H23.814V0Z" fill="#ffffff"/>
<path transform="matrix(1,0,0,-1,555.3965,612.3242)" d="M0 0V34.79H4.41V3.92H23.814V0Z" fill="#ffffff"/>
<path transform="matrix(1,0,0,-1,0,1000)" d="M584.014 422.466H588.42398V387.676H584.014Z" fill="#ffffff"/>
<path transform="matrix(1,0,0,-1,601.1631,585.66799)" d="M0 0V-26.656H-4.41V8.134H-.687L20.579-19.062V8.085H24.989V-26.656H20.972Z" fill="#ffffff"/>
<path transform="matrix(1,0,0,-1,659.0312,598.3105)" d="M0 0H-7.497V3.332H3.725V-14.014H0ZM-10.584-14.259C-12.871-14.259-15.002-13.761-16.979-12.765-18.955-11.769-20.678-10.429-22.148-8.746-23.617-7.064-24.762-5.169-25.578-3.063-26.395-.955-26.803 1.226-26.803 3.479-26.803 5.831-26.395 8.061-25.578 10.168-24.762 12.274-23.627 14.145-22.172 15.778-20.719 17.411-19.004 18.693-17.027 19.625-15.051 20.556-12.904 21.021-10.584 21.021-7.22 21.021-4.443 20.318-2.254 18.914-.066 17.51 1.584 15.681 2.695 13.427L-.686 11.074C-1.699 13.1-3.087 14.603-4.852 15.582-6.615 16.562-8.559 17.053-10.682 17.053-12.445 17.053-14.047 16.677-15.484 15.926-16.922 15.174-18.154 14.153-19.184 12.863-20.213 11.572-20.996 10.11-21.535 8.478-22.074 6.844-22.344 5.146-22.344 3.381-22.344 1.52-22.042-.237-21.437-1.886-20.834-3.536-19.976-4.99-18.865-6.247-17.755-7.505-16.464-8.493-14.994-9.212-13.523-9.931-11.939-10.29-10.24-10.29-8.248-10.29-6.354-9.783-4.557-8.771-2.761-7.759-1.062-6.207 .539-4.115V-8.673C-2.597-12.396-6.305-14.259-10.584-14.259" fill="#ffffff"/>
<path transform="matrix(1,0,0,-1,673.8779,585.66799)" d="M0 0V-26.656H-4.41V8.134H-.687L20.579-19.062V8.085H24.989V-26.656H20.972Z" fill="#ffffff"/>
<path transform="matrix(1,0,0,-1,730.8145,608.4043)" d="M0 0V-3.92H-23.617V30.87H-.441V26.95H-19.207V15.68H-2.891V12.005H-19.207V0Z" fill="#ffffff"/>
<path transform="matrix(1,0,0,-1,757.2754,584.83499)" d="M0 0C-.393 .457-.916 .897-1.568 1.322-2.223 1.747-2.957 2.131-3.773 2.475-4.59 2.817-5.48 3.095-6.443 3.308-7.408 3.52-8.412 3.626-9.457 3.626-12.137 3.626-14.111 3.12-15.387 2.111-16.66 1.102-17.297-.283-17.297-2.041-17.297-3.278-16.971-4.255-16.316-4.972-15.664-5.688-14.66-6.274-13.303-6.73-11.949-7.187-10.225-7.658-8.135-8.146-5.717-8.668-3.627-9.304-1.861-10.052-.098-10.801 1.258-11.803 2.205-13.056 3.152-14.31 3.625-15.979 3.625-18.062 3.625-19.724 3.307-21.164 2.67-22.386 2.033-23.606 1.143-24.616 0-25.414-1.145-26.212-2.482-26.799-4.018-27.173-5.555-27.547-7.221-27.734-9.016-27.734-10.779-27.734-12.504-27.546-14.186-27.171-15.869-26.796-17.461-26.248-18.963-25.529-20.467-24.812-21.871-23.912-23.178-22.834L-21.07-19.11C-20.549-19.666-19.869-20.213-19.037-20.752-18.203-21.291-17.256-21.789-16.195-22.246-15.133-22.704-13.982-23.071-12.74-23.349-11.5-23.627-10.225-23.766-8.918-23.766-6.436-23.766-4.508-23.319-3.137-22.425-1.764-21.53-1.078-20.222-1.078-18.499-1.078-17.196-1.463-16.154-2.23-15.372-2.998-14.591-4.133-13.939-5.635-13.418-7.139-12.896-8.967-12.375-11.123-11.854-13.475-11.268-15.451-10.624-17.053-9.924-18.652-9.224-19.854-8.304-20.654-7.163-21.455-6.022-21.854-4.54-21.854-2.716-21.854-.501-21.314 1.372-20.236 2.903-19.158 4.435-17.674 5.591-15.777 6.373-13.885 7.154-11.744 7.546-9.359 7.546-7.791 7.546-6.33 7.382-4.975 7.056-3.619 6.729-2.352 6.271-1.176 5.684 0 5.096 1.078 4.393 2.059 3.577Z" fill="#ffffff"/>
<path transform="matrix(1,0,0,-1,787.1152,584.83499)" d="M0 0C-.391 .457-.914 .897-1.566 1.322-2.221 1.747-2.955 2.131-3.771 2.475-4.59 2.817-5.48 3.095-6.443 3.308-7.406 3.52-8.41 3.626-9.457 3.626-12.135 3.626-14.111 3.12-15.385 2.111-16.658 1.102-17.297-.283-17.297-2.041-17.297-3.278-16.971-4.255-16.316-4.972-15.664-5.688-14.658-6.274-13.303-6.73-11.947-7.187-10.225-7.658-8.133-8.146-5.717-8.668-3.625-9.304-1.861-10.052-.098-10.801 1.258-11.803 2.205-13.056 3.152-14.31 3.627-15.979 3.627-18.062 3.627-19.724 3.309-21.164 2.672-22.386 2.035-23.606 1.145-24.616 0-25.414-1.143-26.212-2.482-26.799-4.018-27.173-5.553-27.547-7.219-27.734-9.016-27.734-10.779-27.734-12.502-27.546-14.186-27.171-15.867-26.796-17.461-26.248-18.963-25.529-20.465-24.812-21.869-23.912-23.176-22.834L-21.068-19.11C-20.547-19.666-19.869-20.213-19.035-20.752-18.203-21.291-17.256-21.789-16.193-22.246-15.133-22.704-13.98-23.071-12.738-23.349-11.498-23.627-10.225-23.766-8.918-23.766-6.436-23.766-4.508-23.319-3.135-22.425-1.764-21.53-1.078-20.222-1.078-18.499-1.078-17.196-1.461-16.154-2.229-15.372-2.996-14.591-4.133-13.939-5.635-13.418-7.137-12.896-8.967-12.375-11.123-11.854-13.475-11.268-15.451-10.624-17.051-9.924-18.652-9.224-19.854-8.304-20.652-7.163-21.453-6.022-21.854-4.54-21.854-2.716-21.854-.501-21.314 1.372-20.236 2.903-19.158 4.435-17.672 5.591-15.777 6.373-13.883 7.154-11.742 7.546-9.357 7.546-7.791 7.546-6.328 7.382-4.973 7.056-3.617 6.729-2.352 6.271-1.176 5.684 0 5.096 1.078 4.393 2.059 3.577Z" fill="#ffffff"/>
<path transform="matrix(1,0,0,-1,509.6313,654.63479)" d="M0 0C0 2.123 .367 4.205 1.103 6.247 1.837 8.288 2.916 10.15 4.336 11.833 5.757 13.515 7.497 14.854 9.555 15.851 11.613 16.847 13.948 17.346 16.562 17.346 19.665 17.346 22.327 16.635 24.549 15.214 26.77 13.793 28.42 11.972 29.498 9.751L26.019 7.496C25.333 8.967 24.458 10.134 23.397 11 22.335 11.865 21.192 12.478 19.967 12.838 18.742 13.196 17.542 13.377 16.366 13.377 14.438 13.377 12.731 12.984 11.246 12.2 9.758 11.417 8.509 10.371 7.497 9.064 6.484 7.758 5.725 6.296 5.218 4.679 4.711 3.063 4.459 1.437 4.459-.196 4.459-1.993 4.761-3.725 5.365-5.391 5.969-7.057 6.811-8.526 7.889-9.801 8.967-11.074 10.241-12.087 11.711-12.839 13.181-13.59 14.781-13.966 16.513-13.966 17.721-13.966 18.963-13.753 20.237-13.328 21.511-12.904 22.703-12.243 23.814-11.344 24.924-10.446 25.806-9.278 26.46-7.841L30.135-9.85C29.416-11.581 28.305-13.052 26.803-14.26 25.3-15.469 23.625-16.383 21.78-17.004 19.935-17.624 18.113-17.935 16.317-17.935 13.932-17.935 11.743-17.42 9.751-16.391 7.758-15.362 6.035-13.99 4.582-12.275 3.127-10.56 2-8.633 1.2-6.493 .399-4.354 0-2.189 0 0" fill="#ffffff"/>
<path transform="matrix(1,0,0,-1,547.1162,654.9297)" d="M0 0C0-1.764 .286-3.471 .857-5.12 1.429-6.77 2.237-8.231 3.282-9.506 4.328-10.779 5.586-11.792 7.056-12.544 8.526-13.295 10.159-13.671 11.956-13.671 13.817-13.671 15.483-13.278 16.954-12.494 18.424-11.711 19.673-10.665 20.702-9.358 21.731-8.053 22.516-6.582 23.054-4.948 23.593-3.315 23.862-1.666 23.862 0 23.862 1.765 23.577 3.463 23.005 5.097 22.434 6.729 21.616 8.191 20.556 9.482 19.493 10.772 18.235 11.785 16.782 12.52 15.329 13.255 13.72 13.622 11.956 13.622 10.094 13.622 8.428 13.238 6.958 12.471 5.487 11.703 4.238 10.666 3.21 9.359 2.181 8.053 1.388 6.591 .833 4.974 .276 3.357 0 1.698 0 0M11.907-17.64C9.457-17.64 7.235-17.149 5.243-16.17 3.25-15.189 1.526-13.858 .073-12.176-1.38-10.494-2.499-8.599-3.283-6.492-4.067-4.385-4.459-2.222-4.459 0-4.459 2.319-4.042 4.533-3.21 6.64-2.376 8.747-1.218 10.625 .27 12.275 1.755 13.924 3.495 15.231 5.487 16.195 7.479 17.158 9.653 17.641 12.005 17.641 14.455 17.641 16.676 17.134 18.669 16.121 20.661 15.108 22.376 13.753 23.813 12.055 25.251 10.355 26.362 8.461 27.146 6.37 27.93 4.279 28.321 2.14 28.321-.049 28.321-2.368 27.913-4.581 27.097-6.688 26.28-8.795 25.128-10.674 23.643-12.323 22.155-13.973 20.416-15.271 18.424-16.219 16.431-17.166 14.259-17.64 11.907-17.64" fill="#ffffff"/>
<path transform="matrix(1,0,0,-1,595.9199,672.56936)" d="M0 0C-2.777 0-5.113 .481-7.008 1.445-8.902 2.409-10.422 3.716-11.564 5.365-12.709 7.015-13.541 8.885-14.063 10.977-14.586 13.066-14.848 15.223-14.848 17.444V35.035H-10.438V17.444C-10.438 15.745-10.266 14.088-9.923 12.471-9.58 10.854-9.017 9.408-8.232 8.134-7.448 6.86-6.387 5.848-5.047 5.096-3.709 4.345-2.043 3.969-.049 3.969 1.976 3.969 3.658 4.353 4.998 5.121 6.336 5.888 7.398 6.917 8.183 8.208 8.967 9.498 9.53 10.943 9.873 12.544 10.216 14.145 10.388 15.778 10.388 17.444V35.035H14.797V17.444C14.797 15.092 14.527 12.862 13.989 10.756 13.45 8.648 12.593 6.794 11.416 5.194 10.24 3.593 8.713 2.327 6.835 1.396 4.956 .466 2.678 0 0 0" fill="#ffffff"/>
<path transform="matrix(1,0,0,-1,622.9668,655.9092)" d="M0 0H10.535C11.743 0 12.797 .335 13.695 1.005 14.594 1.674 15.295 2.564 15.803 3.675 16.309 4.785 16.562 5.978 16.562 7.252 16.562 8.559 16.268 9.759 15.68 10.854 15.092 11.947 14.324 12.821 13.377 13.475 12.43 14.128 11.384 14.455 10.24 14.455H0ZM-4.41-16.415V18.375H10.486C12.021 18.375 13.426 18.057 14.699 17.42 15.974 16.782 17.084 15.933 18.031 14.871 18.979 13.81 19.714 12.617 20.236 11.295 20.759 9.972 21.021 8.624 21.021 7.252 21.021 5.651 20.719 4.132 20.114 2.695 19.51 1.257 18.66 .032 17.566-.98 16.472-1.993 15.189-2.695 13.72-3.087L22.148-16.415H17.15L9.212-3.92H0V-16.415Z" fill="#ffffff"/>
<path transform="matrix(1,0,0,-1,669.3486,658.7021)" d="M0 0-6.153 16.072-12.333 0ZM-8.015 21.168H-4.291L9.919-13.622H5.215L1.312-3.43H-13.651L-17.57-13.622H-22.274Z" fill="#ffffff"/>
<path transform="matrix(1,0,0,-1,707.1973,658.3105)" d="M0 0H-7.496V3.332H3.725V-14.014H0ZM-10.584-14.259C-12.871-14.259-15.002-13.761-16.979-12.765-18.955-11.769-20.678-10.429-22.147-8.746-23.617-7.064-24.762-5.169-25.577-3.063-26.395-.955-26.803 1.226-26.803 3.479-26.803 5.831-26.395 8.061-25.577 10.168-24.762 12.274-23.626 14.145-22.172 15.778-20.719 17.411-19.004 18.693-17.027 19.625-15.051 20.556-12.902 21.021-10.584 21.021-7.219 21.021-4.441 20.318-2.254 18.914-.064 17.51 1.584 15.681 2.695 13.427L-.686 11.074C-1.699 13.1-3.086 14.603-4.85 15.582-6.615 16.562-8.559 17.053-10.682 17.053-12.445 17.053-14.047 16.677-15.482 15.926-16.922 15.174-18.154 14.153-19.184 12.863-20.212 11.572-20.996 10.11-21.535 8.478-22.074 6.844-22.344 5.146-22.344 3.381-22.344 1.52-22.041-.237-21.437-1.886-20.833-3.536-19.975-4.99-18.864-6.247-17.754-7.505-16.463-8.493-14.994-9.212-13.523-9.931-11.939-10.29-10.24-10.29-8.248-10.29-6.354-9.783-4.557-8.771-2.76-7.759-1.061-6.207 .539-4.115V-8.673C-2.596-12.396-6.305-14.259-10.584-14.259" fill="#ffffff"/>
<path transform="matrix(1,0,0,-1,741.252,668.4043)" d="M0 0V-3.92H-23.617V30.87H-.441V26.95H-19.207V15.68H-2.891V12.005H-19.207V0Z" fill="#ffffff"/>
<path transform="matrix(1,0,0,-1,541.3828,697.5342)" d="M0 0V-34.79H-4.41V-18.963H-23.569V-34.79H-27.979V0H-23.569V-15.043H-4.41V0Z" fill="#ffffff"/>
<path transform="matrix(1,0,0,-1,551.918,714.9297)" d="M0 0C0-1.764 .285-3.471 .857-5.12 1.429-6.77 2.236-8.231 3.283-9.506 4.328-10.779 5.586-11.792 7.056-12.544 8.525-13.295 10.159-13.671 11.956-13.671 13.818-13.671 15.484-13.278 16.954-12.494 18.424-11.711 19.674-10.665 20.702-9.358 21.731-8.053 22.516-6.582 23.055-4.948 23.594-3.315 23.863-1.666 23.863 0 23.863 1.765 23.576 3.463 23.006 5.097 22.434 6.729 21.617 8.191 20.555 9.482 19.494 10.772 18.235 11.785 16.782 12.52 15.328 13.255 13.72 13.622 11.956 13.622 10.094 13.622 8.428 13.238 6.958 12.471 5.488 11.703 4.238 10.666 3.209 9.359 2.18 8.053 1.389 6.591 .833 4.974 .277 3.357 0 1.698 0 0M11.906-17.64C9.457-17.64 7.234-17.149 5.242-16.17 3.25-15.189 1.526-13.858 .073-12.176-1.381-10.494-2.499-8.599-3.283-6.492-4.066-4.385-4.459-2.222-4.459 0-4.459 2.319-4.043 4.533-3.209 6.64-2.377 8.747-1.217 10.625 .27 12.275 1.756 13.924 3.495 15.231 5.488 16.195 7.48 17.158 9.652 17.641 12.005 17.641 14.455 17.641 16.676 17.134 18.669 16.121 20.661 15.108 22.376 13.753 23.814 12.055 25.251 10.355 26.361 8.461 27.146 6.37 27.93 4.279 28.322 2.14 28.322-.049 28.322-2.368 27.913-4.581 27.097-6.688 26.279-8.795 25.129-10.674 23.643-12.323 22.156-13.973 20.416-15.271 18.424-16.219 16.432-17.166 14.259-17.64 11.906-17.64" fill="#ffffff"/>
<path transform="matrix(1,0,0,-1,590.7734,705.66799)" d="M0 0V-26.656H-4.41V8.134H-.686L20.58-19.062V8.085H24.99V-26.656H20.973Z" fill="#ffffff"/>
<path transform="matrix(1,0,0,-1,647.7109,728.4043)" d="M0 0V-3.92H-23.617V30.87H-.441V26.95H-19.207V15.68H-2.891V12.005H-19.207V0Z" fill="#ffffff"/>
<path transform="matrix(1,0,0,-1,674.1719,704.83499)" d="M0 0C-.393 .457-.916 .897-1.568 1.322-2.223 1.747-2.957 2.131-3.773 2.475-4.59 2.817-5.48 3.095-6.444 3.308-7.408 3.52-8.412 3.626-9.457 3.626-12.137 3.626-14.113 3.12-15.387 2.111-16.66 1.102-17.298-.283-17.298-2.041-17.298-3.278-16.972-4.255-16.318-4.972-15.664-5.688-14.66-6.274-13.305-6.73-11.949-7.187-10.226-7.658-8.135-8.146-5.718-8.668-3.627-9.304-1.863-10.052-.099-10.801 1.256-11.803 2.205-13.056 3.151-14.31 3.625-15.979 3.625-18.062 3.625-19.724 3.307-21.164 2.67-22.386 2.033-23.606 1.143-24.616 0-25.414-1.145-26.212-2.483-26.799-4.019-27.173-5.555-27.547-7.221-27.734-9.017-27.734-10.781-27.734-12.504-27.546-14.186-27.171-15.869-26.796-17.461-26.248-18.964-25.529-20.467-24.812-21.871-23.912-23.178-22.834L-21.07-19.11C-20.549-19.666-19.87-20.213-19.037-20.752-18.204-21.291-17.257-21.789-16.195-22.246-15.134-22.704-13.982-23.071-12.74-23.349-11.5-23.627-10.226-23.766-8.918-23.766-6.437-23.766-4.509-23.319-3.137-22.425-1.765-21.53-1.078-20.222-1.078-18.499-1.078-17.196-1.463-16.154-2.23-15.372-2.998-14.591-4.133-13.939-5.636-13.418-7.139-12.896-8.968-12.375-11.123-11.854-13.476-11.268-15.453-10.624-17.053-9.924-18.653-9.224-19.854-8.304-20.654-7.163-21.455-6.022-21.854-4.54-21.854-2.716-21.854-.501-21.315 1.372-20.238 2.903-19.16 4.435-17.674 5.591-15.779 6.373-13.885 7.154-11.744 7.546-9.359 7.546-7.791 7.546-6.33 7.382-4.975 7.056-3.619 6.729-2.353 6.271-1.177 5.684 0 5.096 1.077 4.393 2.057 3.577Z" fill="#ffffff"/>
<path transform="matrix(1,0,0,-1,708.666,701.4541)" d="M0 0H-12.004V-30.87H-16.414V0H-28.419V3.92H0Z" fill="#ffffff"/>
<path transform="matrix(1,0,0,-1,714.9883,697.5342)" d="M0 0 10.535-18.13 21.168 0H25.969L12.738-22.099V-34.79H8.33V-22.001L-4.852 0Z" fill="#ffffff"/>
<path transform="matrix(1,0,0,-1,358.7622,764.835)" d="M0 0C-.392 .457-.915 .897-1.568 1.322-2.222 1.747-2.957 2.131-3.773 2.475-4.59 2.817-5.48 3.095-6.444 3.308-7.408 3.52-8.412 3.626-9.457 3.626-12.136 3.626-14.112 3.12-15.386 2.111-16.66 1.102-17.297-.283-17.297-2.041-17.297-3.278-16.971-4.255-16.317-4.972-15.664-5.688-14.66-6.274-13.304-6.73-11.949-7.187-10.225-7.658-8.134-8.146-5.717-8.668-3.626-9.304-1.862-10.052-.098-10.801 1.257-11.803 2.205-13.056 3.152-14.31 3.626-15.979 3.626-18.062 3.626-19.724 3.307-21.164 2.67-22.386 2.033-23.606 1.143-24.616 0-25.414-1.144-26.212-2.483-26.799-4.018-27.173-5.554-27.547-7.22-27.734-9.016-27.734-10.78-27.734-12.503-27.546-14.186-27.171-15.869-26.796-17.461-26.248-18.963-25.529-20.466-24.812-21.871-23.912-23.177-22.834L-21.07-19.11C-20.548-19.666-19.87-20.213-19.037-20.752-18.204-21.291-17.256-21.789-16.195-22.246-15.133-22.704-13.982-23.071-12.74-23.349-11.499-23.627-10.225-23.766-8.918-23.766-6.436-23.766-4.508-23.319-3.136-22.425-1.764-21.53-1.078-20.222-1.078-18.499-1.078-17.196-1.462-16.154-2.229-15.372-2.998-14.591-4.133-13.939-5.635-13.418-7.138-12.896-8.967-12.375-11.123-11.854-13.475-11.268-15.452-10.624-17.052-9.924-18.653-9.224-19.854-8.304-20.654-7.163-21.455-6.022-21.854-4.54-21.854-2.716-21.854-.501-21.315 1.372-20.237 2.903-19.159 4.435-17.673 5.591-15.778 6.373-13.884 7.154-11.744 7.546-9.359 7.546-7.791 7.546-6.33 7.382-4.974 7.056-3.619 6.729-2.352 6.271-1.176 5.684 0 5.096 1.078 4.393 2.058 3.577Z" fill="#ffffff"/>
<path transform="matrix(1,0,0,-1,382.5269,792.56936)" d="M0 0C-2.777 0-5.113 .481-7.007 1.445-8.902 2.409-10.421 3.716-11.564 5.365-12.708 7.015-13.541 8.885-14.063 10.977-14.586 13.066-14.847 15.223-14.847 17.444V35.035H-10.437V17.444C-10.437 15.745-10.266 14.088-9.922 12.471-9.58 10.854-9.016 9.408-8.232 8.134-7.448 6.86-6.387 5.848-5.047 5.096-3.708 4.345-2.042 3.969-.049 3.969 1.976 3.969 3.658 4.353 4.998 5.121 6.337 5.888 7.399 6.917 8.183 8.208 8.967 9.498 9.531 10.943 9.874 12.544 10.216 14.145 10.388 15.778 10.388 17.444V35.035H14.798V17.444C14.798 15.092 14.528 12.862 13.99 10.756 13.451 8.648 12.593 6.794 11.417 5.194 10.241 3.593 8.713 2.327 6.835 1.396 4.957 .466 2.678 0 0 0" fill="#ffffff"/>
<path transform="matrix(1,0,0,-1,409.5742,775.9092)" d="M0 0H10.535C11.743 0 12.796 .335 13.695 1.005 14.593 1.674 15.295 2.564 15.802 3.675 16.309 4.785 16.562 5.978 16.562 7.252 16.562 8.559 16.268 9.759 15.68 10.854 15.092 11.947 14.324 12.821 13.377 13.475 12.429 14.128 11.384 14.455 10.241 14.455H0ZM-4.41-16.415V18.375H10.486C12.021 18.375 13.426 18.057 14.7 17.42 15.974 16.782 17.084 15.933 18.032 14.871 18.979 13.81 19.714 12.617 20.237 11.295 20.759 9.972 21.021 8.624 21.021 7.252 21.021 5.651 20.718 4.132 20.114 2.695 19.509 1.257 18.66 .032 17.566-.98 16.472-1.993 15.19-2.695 13.72-3.087L22.148-16.415H17.15L9.212-3.92H0V-16.415Z" fill="#ffffff"/>
<path transform="matrix(1,0,0,-1,441.7671,775.9092)" d="M0 0H10.535C11.743 0 12.796 .335 13.695 1.005 14.593 1.674 15.295 2.564 15.802 3.675 16.309 4.785 16.562 5.978 16.562 7.252 16.562 8.559 16.268 9.759 15.68 10.854 15.092 11.947 14.324 12.821 13.377 13.475 12.429 14.128 11.384 14.455 10.241 14.455H0ZM-4.41-16.415V18.375H10.486C12.021 18.375 13.426 18.057 14.7 17.42 15.974 16.782 17.084 15.933 18.032 14.871 18.979 13.81 19.714 12.617 20.237 11.295 20.759 9.972 21.021 8.624 21.021 7.252 21.021 5.651 20.718 4.132 20.114 2.695 19.509 1.257 18.66 .032 17.566-.98 16.472-1.993 15.19-2.695 13.72-3.087L22.148-16.415H17.15L9.212-3.92H0V-16.415Z" fill="#ffffff"/>
<path transform="matrix(1,0,0,-1,493.1685,788.4043)" d="M0 0V-3.92H-23.618V30.87H-.441V26.95H-19.208V15.68H-2.891V12.005H-19.208V0Z" fill="#ffffff"/>
<path transform="matrix(1,0,0,-1,503.605,765.66799)" d="M0 0V-26.656H-4.41V8.134H-.686L20.58-19.062V8.085H24.99V-26.656H20.972Z" fill="#ffffff"/>
<path transform="matrix(1,0,0,-1,561.3262,774.8799)" d="M0 0C0 2.612-.482 4.932-1.445 6.958-2.409 8.982-3.806 10.566-5.635 11.711-7.465 12.854-9.701 13.426-12.348 13.426H-19.992V-13.524H-12.348C-9.67-13.524-7.416-12.929-5.586-11.735-3.757-10.544-2.369-8.927-1.421-6.885-.474-4.844 0-2.548 0 0M-24.402-17.444V17.346H-12.348C-8.624 17.346-5.512 16.569-3.014 15.019-.514 13.466 1.355 11.375 2.598 8.746 3.838 6.116 4.459 3.201 4.459 0 4.459-3.528 3.773-6.6 2.4-9.212 1.029-11.826-.915-13.852-3.43-15.288-5.945-16.727-8.918-17.444-12.348-17.444Z" fill="#ffffff"/>
<path transform="matrix(1,0,0,-1,595.626,788.4043)" d="M0 0V-3.92H-23.618V30.87H-.441V26.95H-19.208V15.68H-2.892V12.005H-19.208V0Z" fill="#ffffff"/>
<path transform="matrix(1,0,0,-1,606.0625,775.9092)" d="M0 0H10.535C11.743 0 12.797 .335 13.695 1.005 14.594 1.674 15.295 2.564 15.803 3.675 16.309 4.785 16.562 5.978 16.562 7.252 16.562 8.559 16.268 9.759 15.68 10.854 15.092 11.947 14.324 12.821 13.377 13.475 12.43 14.128 11.384 14.455 10.24 14.455H0ZM-4.41-16.415V18.375H10.486C12.021 18.375 13.426 18.057 14.699 17.42 15.974 16.782 17.084 15.933 18.031 14.871 18.979 13.81 19.714 12.617 20.236 11.295 20.759 9.972 21.021 8.624 21.021 7.252 21.021 5.651 20.719 4.132 20.114 2.695 19.51 1.257 18.66 .032 17.566-.98 16.472-1.993 15.189-2.695 13.72-3.087L22.148-16.415H17.15L9.212-3.92H0V-16.415Z" fill="#ffffff"/>
<path transform="matrix(1,0,0,-1,663.3223,778.7021)" d="M0 0-6.153 16.072-12.334 0ZM-8.016 21.168H-4.291L9.919-13.622H5.215L1.312-3.43H-13.652L-17.57-13.622H-22.273Z" fill="#ffffff"/>
<path transform="matrix(1,0,0,-1,682.3066,765.66799)" d="M0 0V-26.656H-4.41V8.134H-.687L20.58-19.062V8.085H24.99V-26.656H20.971Z" fill="#ffffff"/>
<path transform="matrix(1,0,0,-1,740.0273,774.8799)" d="M0 0C0 2.612-.482 4.932-1.445 6.958-2.41 8.982-3.807 10.566-5.635 11.711-7.465 12.854-9.701 13.426-12.348 13.426H-19.992V-13.524H-12.348C-9.67-13.524-7.416-12.929-5.586-11.735-3.756-10.544-2.369-8.927-1.42-6.885-.475-4.844 0-2.548 0 0M-24.402-17.444V17.346H-12.348C-8.623 17.346-5.512 16.569-3.014 15.019-.514 13.466 1.355 11.375 2.598 8.746 3.838 6.116 4.459 3.201 4.459 0 4.459-3.528 3.773-6.6 2.4-9.212 1.029-11.826-.914-13.852-3.43-15.288-5.945-16.727-8.918-17.444-12.348-17.444Z" fill="#ffffff"/>
<path transform="matrix(1,0,0,-1,786.7227,761.4541)" d="M0 0H-12.004V-30.87H-16.414V0H-28.42V3.92H0Z" fill="#ffffff"/>
<path transform="matrix(1,0,0,-1,796.1309,775.9092)" d="M0 0H10.535C11.744 0 12.797 .335 13.695 1.005 14.594 1.674 15.297 2.564 15.803 3.675 16.309 4.785 16.562 5.978 16.562 7.252 16.562 8.559 16.268 9.759 15.68 10.854 15.092 11.947 14.324 12.821 13.377 13.475 12.43 14.128 11.385 14.455 10.242 14.455H0ZM-4.41-16.415V18.375H10.486C12.021 18.375 13.426 18.057 14.701 17.42 15.975 16.782 17.084 15.933 18.033 14.871 18.979 13.81 19.715 12.617 20.236 11.295 20.76 9.972 21.021 8.624 21.021 7.252 21.021 5.651 20.719 4.132 20.115 2.695 19.51 1.257 18.66 .032 17.566-.98 16.473-1.993 15.189-2.695 13.721-3.087L22.148-16.415H17.15L9.213-3.92H0V-16.415Z" fill="#ffffff"/>
<path transform="matrix(1,0,0,-1,838.2715,792.56936)" d="M0 0C-2.777 0-5.113 .481-7.008 1.445-8.902 2.409-10.422 3.716-11.564 5.365-12.709 7.015-13.541 8.885-14.064 10.977-14.586 13.066-14.848 15.223-14.848 17.444V35.035H-10.438V17.444C-10.438 15.745-10.266 14.088-9.924 12.471-9.58 10.854-9.018 9.408-8.232 8.134-7.449 6.86-6.389 5.848-5.049 5.096-3.709 4.345-2.043 3.969-.051 3.969 1.975 3.969 3.656 4.353 4.996 5.121 6.336 5.888 7.398 6.917 8.182 8.208 8.967 9.498 9.529 10.943 9.873 12.544 10.215 14.145 10.387 15.778 10.387 17.444V35.035H14.797V17.444C14.797 15.092 14.527 12.862 13.988 10.756 13.449 8.648 12.592 6.794 11.416 5.194 10.24 3.593 8.713 2.327 6.834 1.396 4.955 .466 2.678 0 0 0" fill="#ffffff"/>
<path transform="matrix(1,0,0,-1,881.3418,764.835)" d="M0 0C-.393 .457-.916 .897-1.568 1.322-2.223 1.747-2.957 2.131-3.773 2.475-4.59 2.817-5.48 3.095-6.443 3.308-7.408 3.52-8.412 3.626-9.457 3.626-12.137 3.626-14.111 3.12-15.387 2.111-16.66 1.102-17.297-.283-17.297-2.041-17.297-3.278-16.971-4.255-16.316-4.972-15.664-5.688-14.66-6.274-13.303-6.73-11.949-7.187-10.225-7.658-8.135-8.146-5.717-8.668-3.627-9.304-1.861-10.052-.098-10.801 1.258-11.803 2.205-13.056 3.152-14.31 3.625-15.979 3.625-18.062 3.625-19.724 3.307-21.164 2.67-22.386 2.033-23.606 1.143-24.616 0-25.414-1.145-26.212-2.482-26.799-4.018-27.173-5.555-27.547-7.221-27.734-9.016-27.734-10.779-27.734-12.504-27.546-14.186-27.171-15.869-26.796-17.461-26.248-18.963-25.529-20.467-24.812-21.871-23.912-23.178-22.834L-21.07-19.11C-20.549-19.666-19.869-20.213-19.037-20.752-18.203-21.291-17.256-21.789-16.195-22.246-15.133-22.704-13.982-23.071-12.74-23.349-11.5-23.627-10.225-23.766-8.918-23.766-6.436-23.766-4.508-23.319-3.137-22.425-1.764-21.53-1.078-20.222-1.078-18.499-1.078-17.196-1.463-16.154-2.23-15.372-2.998-14.591-4.133-13.939-5.635-13.418-7.139-12.896-8.967-12.375-11.123-11.854-13.475-11.268-15.451-10.624-17.053-9.924-18.652-9.224-19.854-8.304-20.654-7.163-21.455-6.022-21.854-4.54-21.854-2.716-21.854-.501-21.314 1.372-20.236 2.903-19.158 4.435-17.674 5.591-15.777 6.373-13.885 7.154-11.744 7.546-9.359 7.546-7.791 7.546-6.33 7.382-4.975 7.056-3.619 6.729-2.352 6.271-1.176 5.684 0 5.096 1.078 4.393 2.059 3.577Z" fill="#ffffff"/>
<path transform="matrix(1,0,0,-1,915.8379,761.4541)" d="M0 0H-12.006V-30.87H-16.416V0H-28.42V3.92H0Z" fill="#ffffff"/>
<path transform="matrix(1,0,0,-1,560.4922,852.3242)" d="M0 0V34.79H22.981V30.87H4.41V19.257H20.041V15.582H4.41V0Z" fill="#ffffff"/>
<path transform="matrix(1,0,0,-1,604.9639,838.7021)" d="M0 0-6.153 16.072-12.333 0ZM-8.015 21.168H-4.291L9.919-13.622H5.215L1.312-3.43H-13.651L-17.57-13.622H-22.274Z" fill="#ffffff"/>
<path transform="matrix(1,0,0,-1,0,1000)" d="M619.537 182.466H623.94699V147.676H619.537Z" fill="#ffffff"/>
<path transform="matrix(1,0,0,-1,657.3652,821.4541)" d="M0 0H-12.006V-30.87H-16.416V0H-28.42V3.92H0Z" fill="#ffffff"/>
<path transform="matrix(1,0,0,-1,690.3418,817.5342)" d="M0 0V-34.79H-4.41V-18.963H-23.568V-34.79H-27.979V0H-23.568V-15.043H-4.41V0Z" fill="#ffffff"/>
<path transform="matrix(1,0,0,-1,488.5405,898.7021)" d="M0 0-6.153 16.072-12.333 0ZM-8.015 21.168H-4.291L9.919-13.622H5.215L1.312-3.43H-13.652L-17.57-13.622H-22.274Z" fill="#ffffff"/>
<path transform="matrix(1,0,0,-1,499.5864,894.6348)" d="M0 0C0 2.123 .367 4.205 1.103 6.247 1.837 8.288 2.916 10.15 4.336 11.833 5.757 13.515 7.497 14.854 9.555 15.851 11.613 16.847 13.948 17.346 16.562 17.346 19.665 17.346 22.327 16.635 24.549 15.214 26.77 13.793 28.42 11.972 29.498 9.751L26.019 7.496C25.333 8.967 24.458 10.134 23.397 11 22.335 11.865 21.192 12.478 19.967 12.838 18.742 13.196 17.542 13.377 16.366 13.377 14.438 13.377 12.731 12.984 11.246 12.2 9.758 11.417 8.509 10.371 7.497 9.064 6.484 7.758 5.725 6.296 5.218 4.679 4.711 3.063 4.459 1.437 4.459-.196 4.459-1.993 4.761-3.725 5.365-5.391 5.969-7.057 6.811-8.526 7.889-9.801 8.967-11.074 10.241-12.087 11.711-12.839 13.181-13.59 14.781-13.966 16.513-13.966 17.721-13.966 18.963-13.753 20.237-13.328 21.511-12.904 22.703-12.243 23.814-11.344 24.924-10.446 25.806-9.278 26.46-7.841L30.135-9.85C29.416-11.581 28.305-13.052 26.803-14.26 25.3-15.469 23.625-16.383 21.78-17.004 19.935-17.624 18.113-17.935 16.317-17.935 13.932-17.935 11.743-17.42 9.751-16.391 7.758-15.362 6.035-13.99 4.582-12.275 3.127-10.56 2-8.633 1.2-6.493 .399-4.354 0-2.189 0 0" fill="#ffffff"/>
<path transform="matrix(1,0,0,-1,532.6123,894.6348)" d="M0 0C0 2.123 .367 4.205 1.103 6.247 1.837 8.288 2.916 10.15 4.336 11.833 5.757 13.515 7.497 14.854 9.555 15.851 11.612 16.847 13.948 17.346 16.562 17.346 19.665 17.346 22.327 16.635 24.549 15.214 26.771 13.793 28.42 11.972 29.498 9.751L26.019 7.496C25.333 8.967 24.458 10.134 23.397 11 22.335 11.865 21.192 12.478 19.968 12.838 18.742 13.196 17.542 13.377 16.366 13.377 14.438 13.377 12.731 12.984 11.245 12.2 9.758 11.417 8.509 10.371 7.497 9.064 6.484 7.758 5.725 6.296 5.218 4.679 4.711 3.063 4.459 1.437 4.459-.196 4.459-1.993 4.761-3.725 5.365-5.391 5.969-7.057 6.811-8.526 7.889-9.801 8.967-11.074 10.241-12.087 11.711-12.839 13.181-13.59 14.781-13.966 16.513-13.966 17.722-13.966 18.963-13.753 20.237-13.328 21.511-12.904 22.703-12.243 23.813-11.344 24.924-10.446 25.806-9.278 26.46-7.841L30.135-9.85C29.416-11.581 28.306-13.052 26.803-14.26 25.3-15.469 23.626-16.383 21.78-17.004 19.935-17.624 18.112-17.935 16.317-17.935 13.933-17.935 11.743-17.42 9.751-16.391 7.758-15.362 6.035-13.99 4.582-12.275 3.127-10.56 2-8.633 1.2-6.493 .399-4.354 0-2.189 0 0" fill="#ffffff"/>
<path transform="matrix(1,0,0,-1,591.9023,908.4043)" d="M0 0V-3.92H-23.619V30.87H-.441V26.95H-19.209V15.68H-2.892V12.005H-19.209V0Z" fill="#ffffff"/>
<path transform="matrix(1,0,0,-1,602.3389,895.9092)" d="M0 0H10.143C11.351 0 12.404 .326 13.304 .979 14.201 1.633 14.903 2.515 15.41 3.626 15.917 4.736 16.17 5.945 16.17 7.252 16.17 8.624 15.876 9.856 15.288 10.951 14.7 12.046 13.932 12.903 12.985 13.524 12.037 14.145 10.991 14.455 9.849 14.455H0ZM-4.41-16.415V18.375H10.094C11.629 18.375 13.034 18.057 14.308 17.42 15.582 16.782 16.692 15.933 17.64 14.871 18.587 13.81 19.321 12.617 19.845 11.295 20.367 9.972 20.629 8.624 20.629 7.252 20.629 5.357 20.204 3.553 19.354 1.838 18.505 .122 17.313-1.267 15.778-2.327 14.242-3.39 12.446-3.92 10.388-3.92H0V-16.415Z" fill="#ffffff"/>
<path transform="matrix(1,0,0,-1,653.543,881.4541)" d="M0 0H-12.005V-30.87H-16.415V0H-28.42V3.92H0Z" fill="#ffffff"/>
<path transform="matrix(1,0,0,-1,673.8574,898.7021)" d="M0 0-6.153 16.072-12.334 0ZM-8.016 21.168H-4.291L9.919-13.622H5.215L1.312-3.43H-13.652L-17.57-13.622H-22.273Z" fill="#ffffff"/>
<path transform="matrix(1,0,0,-1,692.8398,885.66799)" d="M0 0V-26.656H-4.409V8.134H-.686L20.58-19.062V8.085H24.99V-26.656H20.973Z" fill="#ffffff"/>
<path transform="matrix(1,0,0,-1,723.9062,894.6348)" d="M0 0C0 2.123 .367 4.205 1.104 6.247 1.838 8.288 2.916 10.15 4.336 11.833 5.758 13.515 7.498 14.854 9.555 15.851 11.613 16.847 13.949 17.346 16.562 17.346 19.666 17.346 22.328 16.635 24.549 15.214 26.77 13.793 28.42 11.972 29.498 9.751L26.02 7.496C25.334 8.967 24.459 10.134 23.398 11 22.336 11.865 21.193 12.478 19.969 12.838 18.742 13.196 17.543 13.377 16.367 13.377 14.439 13.377 12.732 12.984 11.246 12.2 9.76 11.417 8.51 10.371 7.498 9.064 6.484 7.758 5.725 6.296 5.219 4.679 4.713 3.063 4.459 1.437 4.459-.196 4.459-1.993 4.762-3.725 5.365-5.391 5.971-7.057 6.811-8.526 7.889-9.801 8.967-11.074 10.242-12.087 11.711-12.839 13.182-13.59 14.781-13.966 16.514-13.966 17.721-13.966 18.963-13.753 20.238-13.328 21.512-12.904 22.703-12.243 23.814-11.344 24.924-10.446 25.807-9.278 26.461-7.841L30.135-9.85C29.416-11.581 28.305-13.052 26.803-14.26 25.301-15.469 23.627-16.383 21.781-17.004 19.936-17.624 18.113-17.935 16.316-17.935 13.932-17.935 11.744-17.42 9.752-16.391 7.758-15.362 6.035-13.99 4.582-12.275 3.129-10.56 2-8.633 1.201-6.493 .4-4.354 0-2.189 0 0" fill="#ffffff"/>
<path transform="matrix(1,0,0,-1,783.1953,908.4043)" d="M0 0V-3.92H-23.617V30.87H-.441V26.95H-19.207V15.68H-2.891V12.005H-19.207V0Z" fill="#ffffff"/>
</g>
</svg>
